<?xml version="1.0" encoding="UTF-8"?>
<!-- Creator: CorelDRAW 2019 (64-Bit) -->
<svg xmlns="http://www.w3.org/2000/svg" xmlns:xlink="http://www.w3.org/1999/xlink" xmlns:xodm="http://www.corel.com/coreldraw/odm/2003" xml:space="preserve" width="112mm" height="53mm" style="shape-rendering:geometricPrecision; text-rendering:geometricPrecision; image-rendering:optimizeQuality; fill-rule:evenodd; clip-rule:evenodd" viewBox="0 0 11200 5300"> <defs> <style type="text/css"> <![CDATA[ .fil0 {fill:#FF6600} .fil1 {fill:#FF6600;fill-rule:nonzero} .fil2 {fill:white;fill-rule:nonzero} ]]> </style> </defs> <g id="Слой_x0020_1"> <metadata id="CorelCorpID_0Corel-Layer"/> <path class="fil0" d="M90.21 4309.78l1146.54 -4302.09 9472.91 -1.46 441.9 578.43 -1188.3 4458.78 -207.08 0.04 -66.93 234.96 -445.91 0.07 66.93 -234.97 -89.57 0.02c-7.5,23.58 -15.61,46.81 -24.74,68.54 -15.75,37.49 -40.63,69.07 -70.91,95.59 -33.1,29 -71.95,49.77 -113.96,63.76 -45.3,15.08 -93.2,21.53 -141.53,21.53 -43.71,0.01 -88.83,-5.47 -130.52,-21.37 -39.37,-15.03 -73.2,-39.45 -95.19,-76.22 -20.66,-34.6 -27.9,-72.85 -22.41,-111.59 1.86,-13.1 4.34,-26.55 7.26,-40.15l-85.86 0.02c-7.49,23.56 -15.62,46.79 -24.74,68.54 -15.73,37.5 -40.64,69.07 -70.9,95.59 -33.1,29 -71.95,49.77 -113.96,63.76 -45.31,15.08 -93.22,21.53 -141.54,21.54 -43.71,0.01 -88.83,-5.47 -130.53,-21.38 -39.38,-15.03 -73.21,-39.45 -95.18,-76.22 -20.66,-34.6 -27.91,-72.85 -22.41,-111.59 1.86,-13.1 4.34,-26.55 7.27,-40.15l-91.07 0.01 -66.94 234.98 -316.97 0.05 -275.23 0.05 66.94 -234.99 -86.47 0.01c-13.52,41.6 -30.76,85.14 -53.15,117.8 -28.92,42.17 -73.96,71.96 -119.76,93.59 -56.25,26.57 -117.71,38.06 -180.81,38.07 -56.08,0.01 -118.92,-6.97 -169.98,-34.68 -47.13,-25.57 -79.52,-65.6 -85.18,-119 -3.12,-29.44 0.53,-63.06 6.83,-95.68l-73.67 0.01c-2.14,8.95 -4.45,17.6 -6.79,25.83 -12.48,43.81 -30.98,91.5 -60.94,125.84 -29.66,34 -72.44,56.21 -114.72,71.41 -50.76,18.25 -104.34,26.38 -158.99,26.39 -53.81,0.01 -111.59,-7.43 -160.94,-32.86 -43.92,-22.63 -79.44,-57.47 -87.34,-107.44 -5.46,-34.45 0.09,-73.6 8.43,-109.08l-79.31 0.01c-7.49,23.57 -15.61,46.82 -24.74,68.58 -15.74,37.5 -40.64,69.07 -70.9,95.59 -33.1,29.01 -71.95,49.78 -113.96,63.77 -45.32,15.1 -93.23,21.53 -141.54,21.54 -43.73,0.01 -88.82,-5.49 -130.52,-21.38 -39.39,-15.02 -73.22,-39.46 -95.18,-76.22 -20.69,-34.6 -27.92,-72.85 -22.43,-111.59 1.86,-13.11 4.36,-26.58 7.28,-40.2l-180.18 0.03 -66.94 235.02 -316.99 0.06 66.97 -235.03 -180.83 0.03c-9.02,30.8 -19.4,63.23 -32.44,90.57 -15,31.41 -39.9,57.98 -66.13,80.19 -31.92,27.02 -68.62,46.4 -108.75,59.24 -42.96,13.75 -88.5,19.49 -134.12,19.49 -47.47,0.02 -97.26,-5.81 -142.27,-24.11 -38.13,-15.5 -74.02,-39.04 -94.86,-75.89 -17.91,-31.67 -24.43,-66.11 -19.31,-101.15 2.25,-15.48 5.55,-31.74 9.42,-48.26l-79.07 0.02 -25.29 235.03 -323.47 0.05 2.69 -13.52 -5.22 13.53 -332.09 0.05 103.96 -235.05 -2837.55 0.44 -441.89 -578.47 41.77 -156.66zm3383.9 404.04l96.51 -218.23 395.73 -0.07 -23.48 218.23 136.57 -0.03 62.17 -218.23 272.48 -0.04 0 0 317.15 -0.06 -62.17 218.24 55.42 0 62.18 -218.24 568 -0.1 -62.18 218.25 53.79 -0.01c5.99,-17.83 12.4,-35.31 19.39,-51.96 15.73,-37.47 40.64,-69.05 70.93,-95.5 33.18,-28.99 71.84,-49.75 113.92,-63.73 45.36,-15.07 93.15,-21.51 141.52,-21.52 43.72,-0.01 88.87,5.45 130.57,21.4 39.29,15.02 73.21,39.51 95.13,76.22 20.67,34.6 27.73,72.83 22.24,111.55 -1.1,7.71 -2.41,15.53 -3.89,23.45l74.98 -0.02 1.72 -6.19c13.46,-47.29 33.84,-98.44 67.59,-134.34 30.57,-32.5 69.94,-54.42 112.18,-69.03 47.94,-16.57 99.23,-23.14 150.54,-23.15 51.07,-0.01 106.51,5.75 154.62,26.57 41.12,17.8 78.95,46.14 91.19,91.3 9.2,33.99 2.15,77.76 -6.94,114.76l89.28 -0.02c6.73,-20.63 14.18,-41.03 22.73,-60.1 15.43,-34.41 40.3,-63.31 68.56,-87.61 33.2,-28.56 72.31,-48.93 114.09,-62.88 45.79,-15.32 94.07,-22.13 142.96,-22.13 57.06,0 120.62,7.64 171.84,37.47 43.83,25.54 77.25,63.11 84.29,114.19 3.39,24.63 1.18,52.96 -3.55,80.97l89.6 -0.01 62.18 -218.28 592.2 -0.1 -62.18 218.28 90.34 -0.01c6,-17.84 12.41,-35.33 19.41,-52.01 15.73,-37.47 40.64,-69.04 70.93,-95.49 33.19,-28.98 71.84,-49.74 113.93,-63.72 45.36,-15.07 93.14,-21.51 141.51,-21.52 43.72,-0.01 88.87,5.44 130.56,21.39 39.29,15.01 73.22,39.51 95.14,76.22 20.68,34.61 27.73,72.84 22.24,111.57 -1.09,7.71 -2.4,15.55 -3.9,23.47l88.04 -0.01c6,-17.85 12.41,-35.35 19.42,-52.02 15.73,-37.47 40.62,-69.03 70.92,-95.49 33.18,-28.99 71.85,-49.75 113.93,-63.72 45.37,-15.08 93.13,-21.52 141.5,-21.52 43.73,-0.01 88.87,5.43 130.57,21.38 39.28,15.02 73.22,39.51 95.16,76.22 20.67,34.62 27.72,72.86 22.23,111.58 -1.1,7.71 -2.42,15.56 -3.91,23.47l92.46 -0.01 62.18 -218.31 302.73 -0.05 1022.99 -3838.4 -243.91 -319.31 -9059.58 1.4 -1081.18 4056.73 243.92 319.3 2822.51 -0.44z"/> <polygon class="fil1" points="9142.43,2924.2 9482.96,2924.15 9188.47,4028.67 8848.2,4027.98 "/> <path class="fil2" d="M9930.52 1244.75c-126.88,476.08 -325.48,710.82 -524.02,945.52 -87.88,103.89 -175.76,207.8 -254.16,335.11 -78.33,127.2 -148.58,279.71 -202.7,482.76l-272.04 1020.61 -340.54 0.06 294.84 -1106.1c63.34,-237.71 145.09,-415.87 235.98,-564.24 90.78,-148.13 189.4,-264.75 288.04,-381.31 76.19,-90.07 152.4,-180.18 222.27,-285.31 61.22,-92.15 118.37,-196.92 167.79,-325.27l-498.77 -2.2 91.41 -343.12 851.51 -0.09 -59.61 223.58zm-1853.01 880.76l-340.53 0.05 294.57 -1104.91 340.25 0.73 -294.29 1104.13zm-788.09 1679.42c126.88,-476.08 325.48,-710.8 523.99,-945.51 87.91,-103.91 175.8,-207.78 254.19,-335.12 78.33,-127.17 148.59,-279.71 202.7,-482.74l271.92 -1020.2 340.51 -0.06 -294.69 1105.71c-63.33,237.67 -145.09,415.86 -235.98,564.23 -90.78,148.13 -189.42,264.72 -288.04,381.28 -76.19,90.07 -152.4,180.21 -222.27,285.34 -61.22,92.14 -118.37,196.89 -167.79,325.24l498.78 2.2 -91.57 343.55 -851.47 0.13 59.72 -224.05z"/> <path class="fil1" d="M6706.43 4029.06l-936.09 0.18 801.71 -3008.04 936.06 -0.12 -88.03 330.2 -596.74 0.05 -268.84 1008.75 414.32 -0.06 -88.01 330.16 -414.31 0.07 -268.85 1008.74 596.78 -0.09 -88 330.16zm-2399.87 -2332.08l-187.76 704.53c-68.22,256.04 -182.52,417.15 -328.88,516.87 -8.33,5.66 -16.68,11.08 -25.16,16.33 99.15,132.68 131.45,301.82 89.23,460.48l-97.4 365.41c-22.27,83.51 -40.13,181.92 -38.03,268.55l-329.07 0.05c-2.05,-114.41 20.21,-243.39 49.62,-353.78l97.4 -365.42c16.61,-62.48 3.98,-127.27 -36.08,-179.69 -38.17,-49.96 -99.31,-81.16 -162.22,-81.15l-158.42 0.03 -261.22 980.08 -340.19 0.05c267.19,-1002.54 534.4,-2005.09 801.59,-3007.63l410.76 -0.67c165.96,-0.29 322.01,78.47 423.16,210.88 101.88,133.39 135.45,304.42 92.67,465.08zm-505.24 619.35l187.76 -704.53c16.65,-62.49 3.99,-127.24 -36.07,-179.69 -38.74,-50.75 -98.71,-81.13 -162.23,-81.12l-158.41 -0.01 -364.82 1368.83 26.9 0c121.36,-0.02 229.07,-17.65 311.63,-73.88 82.23,-56.02 149.44,-157.7 195.24,-329.6zm-1312.36 1065.65c-68.12,256.04 -182.52,417.13 -328.94,516.87 -146.35,99.71 -314.45,130.94 -495.64,130.99l-454.47 0.13 731.78 -2745.73 -123.28 -26.02 62.99 -236.3 135.93 -0.02 404.61 -0.04c166.63,-0.02 320.7,76.73 422.55,210.08 101.47,132.83 136.32,304.44 93.34,465.87l-448.87 1684.17zm131.01 -1769.7c16.7,-62.58 4.1,-127.19 -35.4,-178.88 -38.92,-50.99 -98.94,-81.36 -162.84,-81.35l-158.82 0.02 -625.69 2347.6 27.34 -0.01c121.43,-0.02 229.12,-17.59 311.38,-73.61 82.18,-56.03 149.37,-157.65 195.19,-329.6l448.84 -1684.17zm3011.02 -590.47l-534.41 2583.46 925.79 -2583.52 349.54 -0.06 -1077.59 3007.21 -620.63 0.1 622.01 -3007.14 335.29 -0.05zm-1684.89 3007.3l801.44 -3007.17 340.63 -0.05 -801.42 3007.17 -340.65 0.05z"/> <path class="fil2" d="M3910.36 4545.14l-73.69 684.24 -216.52 0.04 23.49 -122.84 -76.4 0.02 -46.49 122.83 -219.27 0.04 302.4 -684.27 306.48 -0.06zm-237.88 440.33c11.97,-77.57 28.67,-173.58 49.99,-288.19 -58.4,131.48 -98.98,227.51 -121.93,288.2l71.94 -0.01zm991.65 -440.45l-130.32 457.47c-14.78,51.9 -27.24,88.37 -37.14,109.28 -10.12,21.05 -28.12,42.68 -54.16,64.74 -26.06,22.21 -56.93,38.94 -92.45,50.33 -35.69,11.4 -75.45,17.17 -119.41,17.17 -48.59,0.01 -89.58,-6.76 -122.81,-20.3 -33.39,-13.55 -56.2,-31.13 -68.41,-52.75 -12.34,-21.77 -16.64,-44.7 -13.21,-68.77 3.59,-24.08 16.33,-74.83 38.3,-151.96l115.41 -405.13 212.22 -0.04 -146.2 513.26c-8.51,29.85 -12.07,49.02 -10.64,57.24 1.39,8.37 7.93,12.55 19.43,12.55 13.06,-0.01 22.95,-4.62 29.32,-13.71 6.41,-9.23 14.45,-30.86 24.14,-64.88l143.7 -504.47 212.23 -0.03zm623.77 -0.11l-38.94 136.68 -124.65 0.02 -155.98 547.58 -212.22 0.03 155.98 -547.58 -125.68 0.03 38.94 -136.68 462.55 -0.08zm532.36 400.99c-19.59,68.77 -35.33,117.36 -47.4,145.9 -11.95,28.7 -31.4,54.79 -58.4,78.44 -27,23.65 -59.65,41.82 -97.77,54.52 -38.13,12.68 -80.1,19.03 -125.96,19.04 -43.6,0.01 -80.85,-6.04 -112.13,-17.99 -31.27,-11.97 -54.17,-29.84 -68.3,-53.77 -14.29,-23.93 -19.4,-50.02 -15.51,-78.14 4.1,-28.25 16.08,-77.56 36.13,-147.92l33.34 -117.07c19.59,-68.77 35.33,-117.36 47.41,-145.91 11.95,-28.68 31.4,-54.79 58.39,-78.43 27,-23.66 59.65,-41.83 97.77,-54.51 38.12,-12.7 80.11,-19.05 125.95,-19.06 43.61,-0.01 80.86,6.04 112.14,18.01 31.28,11.95 54.17,29.83 68.29,53.76 14.31,23.93 19.41,50.03 15.53,78.14 -4.11,28.25 -16.09,77.56 -36.13,147.91l-33.35 117.08zm-148.2 -224.73c9.04,-31.73 12.77,-52.06 11.19,-60.99 -1.61,-8.79 -8.75,-13.26 -21.45,-13.26 -10.83,0 -20.09,3.61 -27.98,10.81 -7.68,7.07 -16.63,28.27 -26.66,63.45l-90.96 319.34c-11.3,39.65 -16.4,64.16 -15.25,73.38 1.11,9.38 8.56,13.99 22.29,13.99 14.08,0 24.7,-5.34 31.69,-16.01 6.99,-10.67 16.15,-36.19 27.6,-76.41l89.53 -314.3zm846.14 31.14l-196.76 0.03 14.42 -50.61c6.73,-23.64 8.47,-38.78 5.34,-45.27 -3.14,-6.48 -10.47,-9.65 -22.15,-9.65 -12.71,0 -23.55,4.33 -32.58,13.13 -8.99,8.64 -15.99,21.77 -21.04,39.5 -6.49,22.78 -7.6,39.93 -3.51,51.46 3.97,11.39 19.9,25.38 48.02,41.81 80.49,47.12 128.68,85.9 144.48,116.03 15.97,30.13 14.31,78.71 -4.75,145.61 -13.88,48.73 -30.97,84.63 -51.14,107.84 -20.14,23.07 -51.74,42.41 -95.15,57.98 -43.28,15.72 -90.65,23.51 -142.33,23.52 -56.67,0.01 -102.33,-9.06 -137.37,-27.08 -34.87,-18.01 -54.44,-40.93 -59.05,-68.76 -4.39,-27.97 0.72,-67.61 15.3,-118.79l12.77 -44.84 196.77 -0.04 -23.7 83.2c-7.31,25.66 -9.24,42.09 -5.84,49.45 3.4,7.34 12.16,10.95 26.23,10.95 14.08,0 25.87,-4.62 35.41,-14 9.49,-9.23 16.87,-23.07 22.04,-41.23 11.46,-40.23 12.46,-66.61 2.89,-78.86 -10.03,-12.4 -37.08,-33.15 -81.33,-62.26 -44.2,-29.27 -72.79,-50.59 -86.19,-63.86 -13.22,-13.26 -22.26,-31.56 -26.76,-54.92 -4.5,-23.36 -1.68,-53.2 8.67,-89.54 14.91,-52.33 33.74,-90.68 56.61,-114.91 22.86,-24.22 53.83,-43.11 93.27,-56.81 39.44,-13.71 84.12,-20.49 134.43,-20.5 54.95,-0.01 99.52,7.48 134.08,22.33 34.37,14.98 54.61,33.72 60.66,56.5 6.08,22.63 1.47,61.13 -14.01,115.48l-7.73 27.11zm668.31 90.71l-212.22 0.04 33.84 -118.8c9.85,-34.6 13.73,-56.09 11.74,-64.74 -2.05,-8.51 -10.77,-12.83 -26.05,-12.82 -17.17,0 -29.64,5.19 -37.24,15.57 -7.62,10.52 -16.43,33.01 -26.29,67.62l-90.43 317.48c-9.49,33.29 -13.24,54.92 -11.54,65.16 1.77,10.09 10.8,15.14 26.94,15.14 15.63,-0.01 27.37,-5.06 35.1,-15.29 7.68,-10.1 16.9,-34.03 27.62,-71.66l24.52 -86.08 212.22 -0.03 -7.6 26.67c-20.2,70.94 -40.56,121.25 -60.82,150.81 -20.31,29.71 -54.14,55.67 -101.2,78.01 -47.22,22.36 -100.53,33.47 -160.28,33.48 -61.98,0.01 -110.48,-9.35 -145.45,-28.23 -34.8,-18.88 -54.15,-44.97 -57.67,-78.42 -3.52,-33.44 4.25,-83.61 23.35,-150.66l56.92 -199.82c14.04,-49.31 26.62,-86.23 37.59,-110.88 11.14,-24.65 29.77,-48.44 56.34,-71.23 26.41,-22.78 59.2,-40.81 98.3,-53.94 39.11,-13.12 81.65,-19.62 127.66,-19.62 62.33,-0.01 110.96,10.08 145.87,30.4 34.76,20.17 54.19,45.39 58.45,75.67 4.08,30.27 -2.96,77.28 -21.15,141.15l-18.52 65.02zm762.18 -298.56l-194.91 684.26 -212.23 0.03 81.81 -287.19 -61.81 0.01 -81.81 287.19 -212.21 0.04 194.92 -684.26 212.21 -0.03 -69.74 244.81 61.81 -0.01 69.74 -244.81 212.22 -0.04zm569.63 400.98c-19.6,68.78 -35.33,117.36 -47.41,145.91 -11.95,28.69 -31.4,54.79 -58.4,78.44 -26.99,23.64 -59.64,41.81 -97.76,54.51 -38.13,12.69 -80.11,19.04 -125.96,19.05 -43.6,0 -80.85,-6.05 -112.13,-18 -31.28,-11.96 -54.17,-29.83 -68.31,-53.76 -14.29,-23.94 -19.39,-50.03 -15.51,-78.14 4.1,-28.26 16.09,-77.57 36.13,-147.93l33.35 -117.07c19.59,-68.77 35.33,-117.36 47.4,-145.9 11.95,-28.69 31.4,-54.79 58.4,-78.44 27,-23.65 59.65,-41.82 97.77,-54.51 38.12,-12.69 80.1,-19.05 125.95,-19.05 43.61,-0.01 80.86,6.04 112.13,18 31.28,11.96 54.17,29.84 68.3,53.76 14.3,23.93 19.41,50.03 15.52,78.14 -4.1,28.26 -16.09,77.57 -36.13,147.92l-33.34 117.07zm-148.2 -224.73c9.04,-31.72 12.77,-52.05 11.19,-60.99 -1.61,-8.78 -8.75,-13.26 -21.46,-13.26 -10.82,0.01 -20.08,3.61 -27.98,10.82 -7.67,7.07 -16.63,28.26 -26.65,63.44l-90.97 319.35c-11.29,39.64 -16.39,64.15 -15.24,73.38 1.11,9.38 8.55,13.99 22.28,13.99 14.08,-0.01 24.71,-5.34 31.69,-16.01 7,-10.67 16.15,-36.19 27.61,-76.42l89.53 -314.3zm826.06 224.62c-19.6,68.77 -35.33,117.36 -47.41,145.9 -11.95,28.7 -31.4,54.79 -58.4,78.44 -26.99,23.65 -59.64,41.82 -97.76,54.52 -38.13,12.68 -80.11,19.03 -125.96,19.04 -43.6,0.01 -80.85,-6.04 -112.13,-17.99 -31.28,-11.97 -54.17,-29.84 -68.31,-53.77 -14.29,-23.93 -19.39,-50.02 -15.51,-78.14 4.1,-28.25 16.09,-77.56 36.13,-147.92l33.35 -117.07c19.59,-68.77 35.33,-117.36 47.4,-145.91 11.95,-28.68 31.4,-54.79 58.4,-78.43 27,-23.66 59.65,-41.83 97.77,-54.51 38.12,-12.7 80.1,-19.05 125.95,-19.06 43.61,-0.01 80.86,6.04 112.13,18.01 31.28,11.95 54.17,29.83 68.3,53.76 14.3,23.93 19.41,50.03 15.52,78.14 -4.1,28.25 -16.09,77.56 -36.13,147.92l-33.34 117.07zm-148.2 -224.73c9.04,-31.73 12.77,-52.06 11.19,-60.99 -1.61,-8.79 -8.75,-13.26 -21.46,-13.26 -10.82,0 -20.08,3.61 -27.98,10.81 -7.67,7.07 -16.63,28.27 -26.65,63.45l-90.97 319.34c-11.29,39.65 -16.39,64.16 -15.24,73.39 1.11,9.37 8.55,13.98 22.28,13.98 14.08,0 24.71,-5.34 31.69,-16.01 7,-10.67 16.15,-36.19 27.61,-76.41l89.53 -314.3zm669.36 -176.44l-155.98 547.58 127.75 -0.02 -38.93 136.68 -339.96 0.06 194.91 -684.26 212.21 -0.04z"/> </g> </svg>